<?xml version="1.0" encoding="utf-8"?>
<!-- Generator: Adobe Illustrator 23.0.3, SVG Export Plug-In . SVG Version: 6.00 Build 0)  -->
<svg version="1.1" id="Capa_1" xmlns="http://www.w3.org/2000/svg" xmlns:xlink="http://www.w3.org/1999/xlink" x="0px" y="0px"
	 viewBox="0 0 512 512" style="enable-background:new 0 0 512 512;" xml:space="preserve">
<style type="text/css">
	.st0{fill:#D3D8DD;}
	.st1{fill:#444B54;}
</style>
<g>
	<g>
		<ellipse transform="matrix(0.9732 -0.23 0.23 0.9732 -56.3639 66.2636)" class="st0" cx="256" cy="274.9" rx="154.1" ry="154.1"/>
		<path class="st1" d="M423.6,107.4c-36.7-36.7-83.3-59.9-133.8-67l14.8-14.8c5.9-5.9,5.9-15.4,0-21.2c-5.9-5.9-15.4-5.9-21.2,0
			l-38,38c-5.9,5.9-5.9,15.4,0,21.2l38,38c2.9,2.9,6.8,4.4,10.6,4.4s7.7-1.5,10.6-4.4c5.9-5.9,5.9-15.4,0-21.2l-8.5-8.5
			C391.1,90.6,463,174.6,463,275c0,114.1-92.9,207-207,207S49,389.1,49,275c0-43.6,13.4-85.2,38.7-120.5
			c24.8-34.5,58.9-60.3,98.7-74.5c7.8-2.8,11.9-11.4,9.1-19.2c-2.8-7.8-11.4-11.9-19.2-9.1C130.7,68,91.6,97.5,63.3,137
			C34.3,177.4,19,225.1,19,275c0,63.3,24.7,122.8,69.4,167.6C133.2,487.3,192.7,512,256,512s122.8-24.7,167.6-69.4
			C468.4,397.8,493,338.3,493,275S468.4,152.2,423.6,107.4L423.6,107.4z"/>
	</g>
	<path class="st1" d="M274.3,260.1c-11.9-4.2-25-9.2-32.2-14.9c-1.8-1.4-2.6-5-1.9-8.8c0.4-2,2.1-8.5,8.7-10.5
		c11.6-3.5,19.5,1.1,22.4,3.2c6.6,5,16,3.6,21-3c5-6.6,3.6-16-3-21c-2.8-2.1-9.5-6.5-19.1-8.8v-4c0-8.3-6.7-15-15-15s-15,6.7-15,15
		v4.9c-15.1,4.6-26.4,17.5-29.4,33.6c-2.8,15,2.1,29.5,12.9,37.9c10.6,8.3,25.9,14.4,40.7,19.6c11.7,4.1,12.1,13.1,11.2,18.1
		c-1.4,8.3-8.4,17.3-20.5,17.4c-12.6,0.1-16.2-0.5-25.7-6.7c-6.9-4.5-16.2-2.6-20.8,4.3c-4.5,6.9-2.6,16.2,4.3,20.8
		c10.3,6.8,18.1,9.7,27.2,10.9v4.5c0,8.3,6.7,15,15,15s15-6.7,15-15v-6c7.1-2.1,13.5-5.8,19.1-10.9c8.3-7.7,14-18.1,15.9-29.3
		C309,288.6,296.6,268,274.3,260.1L274.3,260.1z"/>
	<g>
		<path class="st1" d="M274.3,260.1c-6.1-2.2-12.5-4.5-18.3-7.1v32.4c2.8,1,5.5,2,8.3,3c11.7,4.1,12.1,13.1,11.2,18.1
			c-1.4,8.1-8.1,16.8-19.6,17.4v48.8c7.9-0.4,14.2-7,14.2-15v-6c7.1-2.1,13.5-5.8,19.1-10.9c8.3-7.7,14-18.1,15.9-29.3
			C309,288.6,296.6,268,274.3,260.1L274.3,260.1z"/>
		<path class="st1" d="M256,177.3v47.4c7.7-0.3,13,2.8,15.3,4.5c6.6,5,16,3.6,21-3c5-6.6,3.6-16-3-21c-2.8-2.1-9.5-6.5-19.1-8.8v-4
			C270.2,184.3,263.9,177.7,256,177.3L256,177.3z"/>
	</g>
</g>
</svg>
